<?xml version="1.0" encoding="utf-8"?>
<!-- Generator: Adobe Illustrator 18.0.0, SVG Export Plug-In . SVG Version: 6.00 Build 0)  -->
<!DOCTYPE svg PUBLIC "-//W3C//DTD SVG 1.1//EN" "http://www.w3.org/Graphics/SVG/1.1/DTD/svg11.dtd">
<svg version="1.1" id="Camada_1" xmlns="http://www.w3.org/2000/svg" xmlns:xlink="http://www.w3.org/1999/xlink" x="0px" y="0px"
	 viewBox="0 0 95.1 14.8" enable-background="new 0 0 95.1 14.8" xml:space="preserve">
<path fill="#1A5793" d="M6.2,13l2.1-2.1L4.1,6.8l4.1-4.1L6.2,0.6L0,6.8L6.2,13z"/>
<g>
	<path fill="#275691" d="M18.9,0.3h3.8l2.5,8.1c0.3,0.9,0.5,2.3,0.5,2.3h0c0,0,0.3-1.4,0.5-2.3l2.6-8.1h3.7l-5,14.3h-3.6L18.9,0.3z"
		/>
	<path fill="#275691" d="M40,0c4.3,0,7.5,3.2,7.5,7.3c0,4.2-3.2,7.5-7.5,7.5s-7.5-3.3-7.5-7.5C32.5,3.2,35.7,0,40,0z M40,11.6
		c2.1,0,3.9-1.8,3.9-4.3c0-2.3-1.7-4.1-3.9-4.1S36.1,5,36.1,7.3C36.1,9.8,37.9,11.6,40,11.6z"/>
	<path fill="#275691" d="M49.3,0.3h3.5v11.3h5.8v3h-9.3V0.3z"/>
	<path fill="#275691" d="M61.7,3.3h-4.3v-3h12.2v3h-4.3v11.3h-3.5V3.3z"/>
	<path fill="#275691" d="M77.1,11.6h-4.5l-0.9,3h-3.6L73,0.3h3.7l4.9,14.3h-3.6L77.1,11.6z M74.8,3.5c0,0-0.3,1.6-0.6,2.5l-0.8,2.8
		h2.8L75.4,6C75.2,5.1,74.9,3.5,74.8,3.5L74.8,3.5z"/>
	<path fill="#275691" d="M82.5,0.3h5c1.5,0,2.2,0.1,2.8,0.3c1.6,0.6,2.6,2.1,2.6,4.2c0,1.5-0.7,3.2-2.1,3.9v0c0,0,0.2,0.3,0.5,0.9
		l2.8,5h-3.9l-2.5-4.8H86v4.8h-3.5V0.3z M87.6,6.7c1.1,0,1.8-0.6,1.8-1.8c0-1.1-0.4-1.7-2.2-1.7H86v3.5H87.6z"/>
</g>
</svg>
