<?xml version="1.0" encoding="utf-8"?>
<!-- Generator: Adobe Illustrator 18.0.0, SVG Export Plug-In . SVG Version: 6.00 Build 0)  -->
<!DOCTYPE svg PUBLIC "-//W3C//DTD SVG 1.1//EN" "http://www.w3.org/Graphics/SVG/1.1/DTD/svg11.dtd">
<svg version="1.1" id="Camada_1" xmlns="http://www.w3.org/2000/svg" xmlns:xlink="http://www.w3.org/1999/xlink" x="0px" y="0px"
	 viewBox="0 0 126 163" enable-background="new 0 0 126 163" xml:space="preserve">
<g id="Camada_1">
	<g>
		<path fill="#1A5793" d="M13.2,56C7,55.6,0.7,52.7,0.7,52.7L0,52.8v0.9l0.7,1.4l0.9,1.8l1.2,1.3L3.5,59v1.2l-0.2,0.7h1l0.9,0.4
			l1.2,0.9l0.2,1.2l2.7,0.3l1.1-0.4l1.5-1.2l1.3-0.9l0.1,0.9v1.4l-0.3,1.3l0.1,1.9l0.3,1l1.3,0.1h2.8H19l1.1,0.5l0.8,0.1l0.6-0.3
			l0.8-1.1l1-0.4l1.3-0.2l0.7-0.8l1.2-0.6l1.3-0.8l0.1-0.7c-2.3-0.6-12.3-6-12.3-6S14.5,56.9,13.2,56z"/>
		<path fill="#1A5793" d="M30.3,61.1l1.2-0.2l1.4,0.4l1.4-0.6h0.9l0.7-0.3l0.3-0.8l1.3-0.3l1.7-0.1l0.4-0.9l0.6-0.4V57l1.3-0.8
			l0.1-0.9l4-0.2l0.5,1l1,0.9l1.3,1.3l1.2-0.1l1.1,0.2h6.5l5.7-0.1l1-0.8l0.1-2l0.7-1.6l0.2-1.7l-0.6-1.4l-0.4-1l8.4-17.1l0.4-1.5
			l0.4-0.8l-1.6,0.4L70.2,30L68.9,29l-3.3-0.3l-1-1.5c0,0-2-2.7-2.2-2.8c-0.3,0.3-0.2-0.8-0.2-0.8l-0.1-1.4L62,21.1L61.3,21h-1.2
			l-1.6,0L58,21.2l-0.7,0.9l-1,1.3l-0.5,0.7c0,0-0.2,1-0.2,1c0,0-0.3,0.4-0.3,0.4l-0.6,0.3l-1.1,0L53,25.2l-0.5-0.6l-0.7,0.1
			c0,0-0.6,0.4-0.6,0.4c0,0-0.4,0.6-0.4,0.6l0,1l-0.1,1.5l-0.6,0.1l-0.7,0c0,0-0.6-0.4-0.7-0.4c-0.1,0-0.4-0.4-0.4-0.4
			S47.7,27,47.7,27c-0.1-0.1-0.5-0.6-0.5-0.6s-0.5-0.5-0.5-0.6c0,0-0.3-0.5-0.3-0.5v-0.4l0-0.9l-0.1-1.7c0,0-0.1-0.7-0.1-0.7
			c0,0-0.2-1.2-0.2-1.2c0,0,0-1.1,0-1.1s-0.1-0.9-0.1-1c0-0.1-0.4-0.7-0.5-0.8c-0.1-0.1-0.5-0.8-0.5-0.8l-0.4-1.1c0,0-0.3-0.8-0.4-1
			c-0.1-0.2-0.4-0.8-0.4-0.8c0,0-0.1-0.3-0.1-0.3l-1.2,0l-0.2-0.3l-0.4,0.1l-0.4,0.3l-0.9,0.4l-0.2,0.8l-0.6,0.7l-0.6,0.7l-0.9,0.1
			l-0.7,0.3l-0.6,0.4l-0.7,0.5l-0.9,1l-0.8,0.2l-0.7,0.2l-0.4-0.3l0-0.4h-0.6l-0.4,0.1l-0.2,0.5l-0.8,0l-1,0L30,18.5
			c0,0-0.3-0.3-0.3-0.4c0,0-0.5-0.4-0.5-0.4l-0.4-0.3l-1.6-0.1l0-2.4l-0.5-0.7l-0.3-0.4L26,13.4l-0.6,0.4l-0.5,0.3l-0.3,0.5
			l-0.7,0.4l-0.6-0.8L23.1,14l-0.4,0.5l-0.4,0.5l-1.9,0L19.2,15l-1.9,0c0,0-0.4,0.1-0.4,0.1c0,0-0.5,0.3-0.5,0.3s-0.2,0.4-0.2,0.4
			c0,0,0.1,0.8,0.1,0.8l0.1,0.6c0,0,0.1,0.2,0.3,0.2c0.2,0,0.7,0,0.7,0s0.7,0,0.8,0c0.1,0,0.3,0.2,0.3,0.2s0.3,0.2,0.3,0.3
			c0,0,0.3,0.5,0.3,0.5l0.1,0.6c0,0,0,0.5,0,0.6c0,0-0.1,0.5-0.1,0.5h-0.4l-0.8,0l-0.2-0.2l-0.7,0L16.4,20l-0.8,0l0,0.7l0,2.2
			l0.4,0.4c0,0,0.4,0.2,0.5,0.3c0,0,0.3,0.3,0.4,0.3c0.1,0.1,0.4,0.2,0.4,0.2l0.1,1.1l-0.1,0.5l0.5,0.7L18,27l-0.2,2.7V31
			c0,0-0.3,1-0.3,1.1c0,0.2-0.4,1.2-0.4,1.2l0,1.2c0,0-0.2,0.4-0.3,0.5c0,0.1-0.1,1.7-0.1,1.7s-0.3,0.7-0.3,0.9c0,0.1,0,1.1,0,1.1
			S16,39.9,16,40c-0.1,0.1-0.4,0.7-0.5,0.7c-0.1,0-0.8,0-0.9,0c-0.1,0-0.8-0.3-0.9-0.3c-0.1-0.1-0.4-0.3-0.4-0.3h-0.8l-0.6,0.2
			l-0.3,0.5l-1,0.4l-1.4,0.1l-1.3,0l-0.7,0.3l-0.9,0.5l-0.6,0.4c0,0-0.9,0.6-0.9,0.7c0,0.1-0.8,1.1-0.9,1.2
			c-0.1,0.1-0.3,0.9-0.3,0.9L3.5,46l-0.4,0.6c0,0-0.3,0.5-0.4,0.6c0,0.1,0.1,0.9,0.1,0.9L3,48.5l-0.4,1l-0.7,0.6
			c0,0-0.8,0.4-0.8,0.5c0,0.1-0.5,0.8-0.5,0.8l1.9,1.2c0,0,8.7,2.7,10.7,2.7c0.4,0,1,0.5,1,0.5l1.2,0.8c0,0,11.1,6,12.3,6.1
			c1.2,0.1,1.2-0.4,1.2-0.4l0.7-0.6L30.3,61.1z"/>
		<path fill="#1A5793" d="M39,4.7l0.6,0.2l0.9,0.6v1.1L40.2,7c0,0-0.4,0.5-0.4,0.6s0.1,3.1,0.1,3.1h0.3l0.3,0.1l0.8,0.1l0.5,0
			c0,0,0.9,0,1,0c0.1,0,0.7,0,0.7,0l0,1.4h0.3l0.6,0.5l0.1,0.4l0.4,0.9l0.3,0.7l0.4,0.9l0.4,0.6l0.4,0.5l0.4,0.7v1.4l0.1,1.3
			l0.1,0.8l0.1,0.9l0.1,0.7l0.3,0.6l0.1,0.4v0.7l-0.4,0.6l0.3,0.3L48,26l0.9,1l0.6,0.4l0.3-0.2l0.1-1.9l0.6-0.7l0.5-0.4l0.5-0.5
			l0.7-0.1l0.6,0.2l0.8,0.5l0.3,0.4l0.3,0.3l0.6-0.1l0.2-0.3L55,24l0.4-0.5l0.3-0.4l0.4-0.3v-0.4l0.4-0.8c0,0,0.8-1,1-1
			c0.1,0,0.5-0.4,0.5-0.4l1.6,0h1.6l0.5-0.2v-1.2l-0.1-2.2l-0.3-0.4L60,15.4l-0.5-0.7l-0.9-0.8l-0.6-0.3l0-1.2l-0.4-0.7l-0.4-0.6
			l0-0.7V9l0.2-0.5l0-0.6l0.4-1.2L57.9,6l0.6-0.6l0.2-0.7l-0.3-0.7l-0.5-0.9l-0.8-0.3l-0.7-0.1l0-0.7l0.3-0.6L57,0.8l-0.4-0.7L55,0
			l-0.1,0.7l-0.8,1l-0.7,0.9l-1,0.1l-0.7,0.3l-0.9,0.4l-0.9,0.6l-0.6,0.2h-1.4l-0.9,0.3L46.2,5l-0.1,0.8l-0.4,0.6h-0.9l-0.8-0.1
			l-0.4-0.7l-1-0.1l-1.4-0.1l-0.7-0.5l-0.7-0.7c0,0-1.4,0-1.6,0l-0.1,0.1l0.2,0.3L39,4.7z"/>
		<path fill="#1A5793" d="M62.9,23.2c0,0.2,0.2,1,0.2,1l0.7,0.5l0.4,0.4l0.2,0.9l0.5,0.6l0.6,0.7l0.6,0.6l0.7,0.1l0.7,0.1l0.3,0.1
			l0.6-0.2l0.5,0l0.6,0.4l0.6,0.7l0.8,0.3l0.8,0.5l0.8,0l0.4-0.4l0.6-0.1l0.7,0.4l-0.1,0.6l-0.1,0.6l-0.4,0.1l-0.4,0.9L73.1,33
			l-0.6,0.6l-0.8,2.1l-6.9,14.1l0,0.6l0.5,0.6l0.1,0.6c0,0,0.5,0.4,0.4,0.6c0,0.1,0,1,0,1l0.4,0.5l0.3,0.5l0.3,1l0.5,0.6l0.1,1
			l0,1.5l0.9,0.6l1,0.8l0.7,0.7l0.8,0.7l0.6,0.1l1.6,0.1l2.1,0.2l0.6,0.2l5.3,0.2l4.9,0l3.3,0.3h3.3l4.5,0.2l1.3,0l0.5-1.2l1.1-1.8
			c0,0,0.8-0.8,0.9-0.9c0.1-0.1,0.7-0.7,0.7-0.7l0.4-1.1l0.1-1.2l-0.1-0.8l-0.4-0.4l0.1-1.2l0.4-0.6l0.2-0.9l0.2-0.8
			c0,0,0.3-0.2,0.5-0.3c0.2-0.1,1.2-0.9,1.2-0.9l0.7-0.4l0.4-0.6l0.6-1.1l0-1l0-1l-0.4-0.1l-0.7-0.3l-0.3-0.7l0.9-1.1l2.4-2l1.3-0.6
			l0.9-1.2l1.9-3l1.3-1.7l0.1-1.2l0.3-0.7l0.5-0.9l0.5-1.2l0.2-1.9l0.4-0.5v-1.2l-0.7-0.4h-1.2l-0.3-0.6c0,0-1.2-0.1-1.3-0.2
			c-0.2-0.1-0.9-0.1-0.9-0.1l-1.1-0.1l-1-0.2l-0.6,0.1l-0.4,0.4l-2.3,2.5l-1.3,1.6l-1,0.6l-1.1,0l-0.6-0.4l-0.5,0l-0.3,0.4l-0.2,0.4
			l-0.7-0.3l-0.6-0.5L97,30c0,0-0.6-0.3-0.7-0.3S95.7,29,95.7,29l-0.6-1.2l-0.3-0.3H94l-1.2,0.7l-1.1,0.5L90.1,29l-0.4-0.4l0.2-0.8
			l1-0.2l-0.1-0.4L89.6,27c0,0-0.6-0.6-0.7-0.7c-0.1-0.1-0.7-1-0.7-1L88,24.4l-0.6-0.7l-1.2-1.6c0,0-0.2-1-0.4-1.3
			c-0.2-0.3-0.3-0.9-0.3-1.1c0-0.2-0.5-0.9-0.7-1.1c-0.2-0.2-0.4-1.1-0.6-1.3c-0.1-0.2-0.7-0.7-0.7-0.7l-1.2-0.7l-1.2-0.9
			c0,0-0.9-0.2-1-0.3c-0.1-0.1-1-0.4-1.1-0.6c-0.1-0.1-0.2-1.1-0.2-1.1l-0.1-1l-0.4-0.6c0,0-0.8,0-0.9,0c-0.1,0-1,0.3-1,0.3L76,12
			h-1l-0.5-0.1l-0.1,0.5l0,0.8V14l-0.1,0.3h-1h-0.6L71,14.2l-0.9,0.1c0,0-1-0.1-1.2,0c-0.2,0-1.3,0.7-1.3,0.7l-1,0.4l-1,0.5L64,16.4
			l-0.8,0.6l-0.6,0.2l0,2.8l0.1,1.2C62.7,21.2,62.9,23,62.9,23.2z"/>
		<path fill="#1A5793" d="M80.4,13.9c0.2,0.1,0.4,0.3,0.8,0.4c0.4,0.1,0.8,0.5,1,0.6c0.2,0,0.8,0.3,1.1,0.4c0.3,0.2,0.8,0.4,1.1,0.5
			c0.3,0.1,0.6,0.7,0.7,0.8c0.1,0.1,0.6,1.3,0.8,1.6c0.3,0.2,0.6,1.3,0.6,1.5c0,0.2,0.1,1,0.1,1s0.3,0.4,0.5,0.6
			c0.2,0.2,0.6,0.9,0.7,1.2c0.2,0.3,0.6,0.9,0.6,0.9s0.6,0.9,0.7,1.2c0.1,0.3,0.5,1,0.6,1.1c0.1,0.1,0.4,0.6,0.4,0.6s0.6,0,0.8,0
			c0.2,0,0.4-0.2,0.4-0.2l0.3-1l0.7-0.9l0.6-0.8c0,0,0.5-1.1,0.5-1.2c0-0.1,0.4-0.6,0.7-0.7c0.3-0.1,1-0.6,1-0.6l1-0.9
			c0,0,0.7-1,1.1-1.4c0.4-0.4,1.3-1.2,1.4-1.4s0.5-0.3,0.5-0.3l0.1-0.9l-0.4-0.7l-0.4-0.4l-0.9-0.1l-0.8-0.6L96,13.3l-0.3-0.7
			c0,0-0.3-1.2-0.3-1.3c0-0.1-0.1-1-0.1-1.2c0-0.2-0.3-0.5-0.3-0.5L94.5,9l-0.2-0.6c0,0,0-1.7,0-1.9c0-0.1-0.1-0.9-0.1-0.9L93.8,5
			l-0.7-0.5l-0.8,0.7l-1,1.2l-1,1.5l-1,1.8c0,0-0.7,1.7-0.8,1.9S88,12.3,88,12.3L87,13l-1,0l-0.7-0.1l-0.7-0.3h-0.8l-0.9,0L82.7,13
			L82,13.1l-0.7-0.1l-1.1-0.4c0,0-0.4,0.1-0.4,0.4S80.2,13.7,80.4,13.9z"/>
		<path fill="#1A5793" d="M125.2,33.1c-0.3,0-0.6,0.4-0.6,0.4l-0.3,0.4h-0.7l-0.8,0.4l-0.3,0.7l-0.7,0.2l-0.5-0.4l-0.1-0.9l0.2-0.7
			c0,0,0.7-0.7,0.8-0.7c0.1,0,0.1-0.7,0.1-0.8c0-0.1-0.1-0.7-0.1-0.8c0-0.1-0.5-0.8-0.5-0.8l-1-0.8l-0.5-0.7l-0.8-0.3l-1,0l-0.6-0.1
			l-0.7-0.6l-0.9-0.1l-0.2,0.2c0,0-0.4,1.2-0.4,1.3c0,0.1-0.2,0.9-0.2,1c0,0.1-0.3,1.2-0.3,1.2s-0.4,0.8-0.5,0.9
			c-0.1,0.1-0.3,0.6-0.3,0.6l-0.1,0.7l-0.2,0.7l-0.2,0.7l-0.8,1.2l-0.9,1.3l-1.1,1.7l-0.9,1.4l-0.9,0.7l-1.3,0.7l-1.1,1.3l0.2,0.5
			c0,0,0.9,0.2,1,0.2c0.1,0,1.9,1.1,1.9,1.1l0.4,0.8l0.1,1.2l-0.2,3.5c0,0-0.3,1.4-0.4,1.6c0,0.1,0.4,0.9,0.4,0.9l0.9,1.2l0.9,0.6
			c0,0,1.7-0.1,1.9,0.1c0.3,0.3,0.4,0.4,0.4,0.4v1c0,0-0.2,1-0.4,1.1c-0.1,0.1-1,0.4-1,0.4s-0.4,0.9-0.4,1c0,0.1-0.1,0.9-0.1,1
			c0,0.1,0.5,0.7,0.7,1c0.2,0.3,0.5,0.5,0.7,0.7c0.1,0.2,0.2,1,0.2,1.3c0,0.2,0.4,1.2,0.4,1.2s0.5,0.3,0.7,0.4
			c0.1,0,0.8,0.3,0.8,0.3l0.4-0.6c0,0,0-1.5,0.1-1.6c0.1-0.1-0.1-0.7-0.1-0.7l-0.3-0.6c0,0-0.1-1.2-0.1-1.3c0-0.1,0.4-1.3,0.4-1.4
			c0.1-0.1,0.6-0.9,0.7-1.1c0-0.1,0.3-1.1,0.3-1.1l0.1-0.7l0.5-1.1l1-0.9l1.6-0.4l0.9-0.4l1-0.9l0.7-0.7l0.8-0.7l0.6-0.3l0.9-0.1
			c0,0,0.1,0,0.3,0V33.1C125.5,33.1,125.3,33.1,125.2,33.1z"/>
		<path fill="#1A5793" d="M56.9,75.4l0.4-0.5l0-1.8l-0.5-0.9l-0.3-0.9l0-0.7l0.5-0.6l0.1-0.4l-0.5-0.2L55.6,69l-0.2-0.6h-1.7l-1.8,0
			l-1.3,0.1L50.4,68l-0.2-0.2l0-0.9v-0.6l-0.1-0.6L50,64.2l0.2-0.9l0-1.2l-0.1-0.7l-0.1-0.7l0.1-0.5l-0.3-1h-0.6l-0.4,0.1l-0.5-0.1
			l-0.6-0.4l-0.7-0.7l-0.7-0.8l-1.1-0.7L44.6,56h-1.2l-0.7,0l-0.5,0.4l-0.5,0.9l-0.6,0l-0.3,0.4l-0.1,0.9L40,59c0,0-0.1,0.7-0.1,0.9
			c-0.1,0.2-0.6,0.2-0.6,0.2h-1.9l-0.4,0.5l-0.5,0.7l-0.6,0.4h-1.4l-1.2,0.2l-1.2,0c0,0-0.8,0-0.9,0c-0.1,0-0.7,0.1-0.7,0.1
			l-0.4,0.5l-0.3,0.4l0.2,0.3l0.9-0.3c0,0,1.3-0.3,1.5-0.3s1.7,0,1.7,0h0.9l0.3,0.7l0,1.9l-0.5,0.4l0.2,1l0.2,0.8l-0.1,1.7l0.4,1.2
			l0.6,0.8l0.6,0.6l1,0.9l0.7,0.9l0.9,0.4l1.3-0.1l0.6,0l0.6,0.3l0.4,0.4h0.6l0.7-0.3l0.4,0.3l0.3,0.6l0.5,0.6l0.5,0.5l0.9,0.2
			l1.4,0.2l0.6,0.3l0.4,0.7l0.9,0.6c0,0,1,0.1,1.3,0.1c0.3,0,1.6,0,1.8,0c0.2,0,1.6,0.3,1.6,0.3l2.1-1.8L56.9,75.4z"/>
		<path fill="#1A5793" d="M66.5,94.5l1,0.6l0.4,0.4h0.3l0.9,0.1l0.3-0.5c0,0,0.5-0.8,0.6-0.9c0.1-0.1,0.7-0.5,1.2-0.5
			c0.5,0,0.2-0.1,0.7-0.2c0.5-0.2,1.5-0.1,1.7-0.1c0.2,0,0.7,0,1.3,0.4c0.6,0.4,0.8,0.6,0.8,0.6l1.2,0.5l1.8-0.1l0.6-0.1
			c0,0,0.7,0.3,1,0.3c0.3,0,1,0,1,0l0.4-0.4l0.8-0.5l0.7,0l0.4,0.8l0.1,0.5l-0.1,1l0.1,0.5h1.6v-0.8l0-0.3l-0.3-0.5l0-1l0.1-0.7
			l0.6-0.7l0.7-1l0.9-1.3l1-1.6l0.8-0.7l1-0.7l0.6-0.3l0.3-0.9l0.7-1l0.8-0.8l1-0.5l0.5-0.8l0.4-2.8c0,0,0.3-1.5,0.9-2.3
			c0.6-0.8,0.5-2.2,0.5-2.2l-0.3-1.3c0,0,0-3.2,0-4.8c0-1.5,0.1-1.4,0.1-1.4l1.2-3.3l0.3-1.1l0-0.4l-8.6-0.6l-11.8-0.5l-5.4-0.2
			L70.9,62l-3.3-2.7L67,58.6l-0.2-2.1l-0.4-1.3l-0.4-0.8l-0.1-0.6l-0.2-0.2l-0.3,0l-0.2,0.6l-0.2,0.8v1l-0.1,1.2l-0.4,1.2L64,59.3
			l-12.7-0.2l-0.1,4.5l-0.2,1l0.4,0.8l-0.1,2c0,0,3.2,0,3.4,0s1.3,0.4,1.3,0.4s1.1,0.3,1.3,0.4c0.1,0.1,0.3,0.4,0.4,0.6
			c0.1,0.2-0.1,1.1-0.1,1.1l-0.1,0.6l0.2,0.8l0.4,0.6l0,3.1l-2.2,3.3L55.2,79l0.5,0.4l0.4,2.6l0.4,0.6l0.2,1.5l-0.1,1h-0.8l0.2,0.6
			l0.4,0.3l0.2,0.3l0.3,1.4l0.1,1.4l7.6,0v0.5l-0.1,0.6l-0.4,0.3v0.6l0.2,1.7l0.3,0.5l0.9,0.6L66.5,94.5z"/>
		<path fill="#1A5793" d="M67.9,114.3l0.3,0.1h1.9l2.1,0l1.4,0.3l0.9,0.3l0.5,0.5l0.4,0.9l0.2,1.2v1.1l0.3,0.3l0.4,0.6l0.1,0.9
			l0.2,1.2l0.3,0.4l1.2-0.1l0.6-0.3l0.7-0.3l0.9,0l0.4,0.4l0.5,0.1l0.4-0.5l0.1-1.1l0.9-0.7l0.1-0.7l0.5-0.7l0.6-0.7l2-1l0.7-0.7
			l1.2-1.1l2-1.5c0,0,0-0.6,0-0.8c0-0.1,0.5-0.7,0.5-0.7l0.1-0.9l0.7-1.1l1-1.4l0.8-1l0.8-0.6l0.3-0.2v-2.9l-1.1-0.3l-1.5-0.5
			c0,0-1.6-0.8-1.9-1c-0.2-0.2-0.9-0.5-1.1-0.6c-0.2-0.1-1-0.2-1.2-0.2c-0.2,0-0.8,0.1-1-0.1c-0.2-0.2,0-1.6,0-1.6s-0.9-0.2-1-0.4
			c-0.1-0.2,0.1-0.4-0.2-0.6c-0.3-0.1-1-0.1-1.4-0.1c-0.3,0-1.2,0-1.2,0l-0.3-0.9l0.4-0.4l0.2-0.6l0.2-0.7L82.9,95l-0.2,0.2
			l-0.8,0.3h-0.9c0,0-0.9,0-1.1,0s-1.1,0.1-1.1,0.1s-0.8,0-1.1,0c-0.3,0-0.7,0.1-1-0.1c-0.3-0.2-0.9-0.4-1-0.4
			c-0.1,0-1.1-0.7-1.1-0.7s-0.4-0.2-0.6-0.2c-0.2,0-1,0.1-1.2,0.1s-1.2,0.4-1.2,0.4l-0.6,0.5L70,95.8l-0.6,0.6l-0.5,0
			c0,0-0.7-0.1-0.9-0.1c-0.2,0-1.1-0.6-1.1-0.6l0.2,1.1c0,0,0.5,0.7,0.6,0.9c0,0.2,0,1,0,1L67,99.5l-0.1,1.3c0,0,0.2,1,0.2,1.1
			c0,0.1-0.8,1.1-0.8,1.1l-0.7,0.8l-0.1,0.7l0.6,0.7l-0.4,0.9c0,0-0.2,0.5-0.3,0.7c0,0.2,0.2,0.6,0.2,0.9c0,0.2,0.4,1.1,0.4,1.2
			c0,0.1,0.2,0.8,0.2,0.8v1.3l0.1,1.8v1.1L67.9,114.3z"/>
		<path fill="#1A5793" d="M114.9,76.6l-0.6,0l-0.9,0.2l-1,0.3l-1,0.2l-0.7,0.4l-1,0.2v0.5l-1.1-0.1l-0.3-0.2l-0.7-0.4l-0.8-0.1
			l-1,0.1l-0.6-0.1l-0.2-0.6l-0.1-0.9l-1.5,0l-0.6,0.4l-0.2,1.3l-1-0.3l-0.8-0.8l-0.8-0.1l-0.8-0.6l-0.9-0.5l-0.3,0.5
			c0,0-0.2,0.9-0.4,1c-0.2,0.1-0.2,1-0.4,1.4c-0.2,0.4-0.2,1-0.2,1l-0.2,1l-0.5,1l-0.4,1.9l-0.3,0.8L94,85.2l-0.6,0.3l-0.7,1
			l-0.4,1.1l-0.1,0.5l-0.9,0.4l-0.8,0.3l-1.4,1.7l-0.3,1l-0.7,0.6L87,92.6L86.4,94l0.1,1.4l0.1,0.7v0.8l0.2,0.9l0.7,0.4l0.1,0.5
			l0.4,0.5c0,0,0.5,0.2,0.9,0.3c0.4,0.1,0.7,0.5,0.8,0.5c0.1,0,0.8,0.6,1,0.6c0.1,0,1.1,0.6,1.4,0.6c0.2,0,0.8,0.3,0.8,0.3l1,0.5
			l0.9,0.7l0.9-1l0.5-0.6l0.7-0.9c0,0,0.7-0.7,0.8-0.7c0.1,0,0.8-0.1,0.8-0.1l1.6-0.2l1.2,0.1l0.6-0.5c0,0,0.7-0.2,0.9-0.2
			c0.1,0,0.8-0.1,0.8-0.1l1.3,0h1.1l0.9,0.2l0.5,0.3l0.1-0.4l0.5-0.6l0.7-0.4l0.6-0.4v-0.4v-0.9l-0.2-0.3l-0.4-0.2l-0.1-0.6l0.2-0.5
			l0.5-0.6l0.6-0.5l0-0.4l-0.4-0.6l-0.3-0.3l-0.2-0.6l0-0.8l0.2-0.8l0.5-1l0.9-0.1l0.6-0.1l-0.1-0.6v-0.3l-0.2-0.5v-1.4v-0.6
			l0.6-0.1l0.9-0.2v-0.5l0.2-0.6l0.6,0l0.6,0.2l0.5,0.4l0.4,0l0.1-0.3v-1.6l-0.3-0.2l-0.4-0.6l-0.3-0.4l-0.1-2.6l0.3-0.2L114.9,76.6
			z"/>
		<polygon fill="#1A5793" points="106.1,127.5 105.5,127.5 104.9,127.4 104.6,127.2 104.7,126.5 104.7,125.9 101.9,125.9 
			101.7,124.8 101.6,123.7 101.1,122.9 100.5,122.4 100.4,121.8 100.3,120.4 100.2,119.3 99.5,118.6 98.7,118.5 95.6,118.5 
			94.9,118 94.4,117.7 93.8,117.5 93.3,117.4 91.9,117.3 90.3,117.2 89.8,117.2 88.7,117.2 87.8,117.3 86.9,117.3 86.4,117.3 
			85.6,117.7 84.7,118.4 83.9,119.2 83.6,119.9 82.6,121 82.2,121.7 81.9,122.6 81.9,124.5 81.8,126 81.8,127.6 81.2,128.3 
			80.9,128.5 81.2,128.7 81.6,128.7 82,128.4 82.3,128.6 82.9,129.5 83.2,130.2 83.4,131.2 84.4,131.6 85.5,131.8 86.6,131.9 
			87.8,132 89,132.1 89.4,132.5 90.5,132.8 92.1,133.1 93.3,133.2 93.6,132.8 93.7,132.3 94,131.6 95.2,131.6 95.8,131.5 
			96.4,130.9 96.8,130.6 97.8,130.6 99.2,130.6 100.3,130.6 100.5,131.1 101,131.4 101.5,131.3 102.2,130.8 102.8,130.7 
			103.5,130.7 104.3,130.7 104.8,131 105.1,131 105.4,130.4 105.6,129.7 106.1,129.2 106.3,128.8 106.6,128.5 106.6,127.8 		"/>
		<path fill="#1A5793" d="M121.1,116.4h-0.9l-0.8,0.3l-0.8,0.3l-0.7,0.3l-0.8,0.3c0,0,0,0.4-0.1,0.4c-0.1,0-1.4,0-1.4,0l-1.1,0
			l-0.5-0.2l-0.4-0.9l-0.2-0.6c0,0-0.2-0.6-0.3-0.8c-0.1-0.1-0.1-1.1-0.1-1.1l0-1l0-0.7l0.1-0.7l-0.7-0.2c0,0-0.7,0-0.9-0.3
			c-0.1-0.3-0.6-0.9-0.6-1c0-0.1-0.2-0.7-0.2-1c0-0.2,0-0.8,0-1.1c0-0.3,0-0.5,0-0.7c0-0.1-0.3-1-0.3-1l-0.5-0.4l-0.7-0.1l-0.6,0.1
			l-1.3,0.2h-1.6l-0.6,0l-0.3,0.6l-0.2,0.5l-0.7-0.3l-0.9-0.3l-0.5-0.7c0,0-0.3-0.4-0.6-0.5c-0.3,0-0.7,0-1.2,0c-0.5,0-1.9,0-1.9,0
			l-0.9-0.3l-0.6,0l-0.6,0.3l-0.8,0.4l-0.6,0.8l-1.1,0.9l-0.9,1.1l-0.2,0.7l-0.6,0.9l-0.1,0.8l-0.4,0.7l0,0.6l-0.4,0.7l-0.9,0.6
			l-0.9,0.8l-1.2,1.1l1.4,0.1l1.5,0.1h1.2l1.1,0.1l0.9,0.2l0.9,0.6l0.7,0.2h1.4h1.1h1.3l0.7,0.1l0.3,0.4l0.4,0.4l0.4,0.4l0.2,0.5
			v0.8v0.6l0,0.6l0.2,0.5l0.2,0.1l0.1,0.5l0.3,0.4l0.1,0.5l0,0.8l0,0.4l1,0h1.4l0.4,0.1l0.2,0.5l0,0.7l0.1,0.3l0.7,0l0.7,0.2
			l0.1,0.2l0.5-0.1l0.5-0.8l1-0.6c0,0,0.5-0.4,0.6-0.5c0.1-0.1,1.5-1,1.5-1l0.9-0.8l0.5-0.4l1-0.4l0.7-0.2l0.5-0.1l0.6-0.6l2.5,0
			l0.4-0.7l1.1-0.7l0.6-0.2l1-0.1l0.6-0.1l0-0.4l0-0.4l0.6-0.6v-0.9h-0.7L121.1,116.4z"/>
		<path fill="#1A5793" d="M124.3,115.2l-0.8,0.1l-1.3,0.8l0.6,0.2l0.5,0.2l0.2,0.5l-0.3,0.7l0.2,0.4l0.4-0.1l0.4-0.4l0.7,0.2
			c0,0,0.5,0.2,0.7,0.2v-3L124.3,115.2z"/>
		<path fill="#1A5793" d="M125.6,84.1l-0.6-0.7l-0.2-0.4l-0.2-0.4l-0.5-0.3l-0.7-0.1l-0.7,0l-1.3,0.9l-2.3,1.5l-2,1l-0.9,0.3
			l-0.6,0.3l-0.1-1c0,0-0.4-0.5-0.6-0.5c-0.1,0-0.7,0-0.7,0l-0.4,0.6l-0.6,0.2l-0.4,0.1l0,1.1l0.2,0.8l0,0.9l-0.1,0.6l-0.7,0.4
			l-0.6-0.1l-0.6,0.3l-0.1,0.7l-0.1,1.1l0.4,0.5l0.1,0.6l0.1,0.7l-0.1,0.6l-0.6,0.4l-0.3,0.5l0.1,0.6l0.3,0.1l0.1,0.6l-0.1,0.9
			l0.1,0.7c0,0-0.2,0.2-0.3,0.4c-0.1,0.2-0.7,0.8-0.7,0.8l-0.9,0.3l-0.7,0.7l-0.4,0.4l-0.5-0.6c0,0-0.6-0.4-0.8-0.4
			c-0.2,0-0.7,0-0.7,0h-1.1l-1,0l-0.6,0.1l-0.4,0.5l-0.6,0.2l-0.9,0.1l-0.8,0.1l-1,0.1l-0.7,0c0,0-0.4,0-0.6,0.1
			c-0.1,0.1-0.6,0.3-0.7,0.6c-0.1,0.4-1.1,1.5-1.1,1.5s-0.7,0.9-0.8,1.1c-0.1,0.2-0.1,0.8-0.1,0.8l0,0.4l1.3,0h1.3l1.3,0.1l1.8,0
			l0.9,0.4l0.4,0.4l0.4,0.4h0.7l0.2-0.3c0,0,0.2-0.3,0.4-0.3c0.3,0,0.9,0,1.2,0c0.3,0,0.6-0.2,0.7-0.2c0.1,0,1.2-0.1,1.2-0.1
			s0.8-0.1,0.9-0.1c0.1,0,1,0,1,0l0.6,0.2l0.4,0.4l0.4,0.4l0.2,0.8l0.2,0.8v0.8l0.2,0.7l0.1,0.4l0.3,0.5l0.4,0.5l0.5,0.3l0.4,0.1
			l0.6,0.3l0.2,0.5l0,0.6l-0.1,0.6l-0.2,0.5v0.7l0,0.7l0.2,0.6l0.2,0.3l0.3,0.5l0,0.5l0.1,0.4h0.6l0.9,0l0.2-0.5l0.4-0.5l0.6-0.2
			l0.2,0.2c0,0,0.5,0,0.6,0c0.1-0.1,0.4-0.3,0.4-0.3l0.8-0.3l0.6-0.3l0.5-0.3l1-0.2l0.8-0.2l0.6-0.2l0.6-0.2l0.9-0.2l0.8-0.1
			l0.6-0.1l0.1,0L125.6,84.1L125.6,84.1z"/>
		<path fill="#1A5793" d="M105,133.8c0-0.1,0-1.2,0-1.2l-0.1-0.7l-0.9-0.7h-0.8l-0.6,0.2l-0.4,0.3l-0.4,0.1l-0.8,0.2l-0.4-0.2
			l-0.3-0.3l-0.3-0.3l-0.7,0.1l-0.6,0l-1,0.1h-0.6l-0.5,0.6l-0.4,0.3l-0.8,0l-0.3,0.3l-0.4,0.6l-0.2,0.5h-0.6h-0.7l-0.7-0.1l-1-0.1
			l-1-0.2l-0.8-0.3l-0.8-0.2l-0.8-0.1h-0.5l-1.2-0.2l-0.9-0.1l-0.7,0v1.1l0,1.1l0.1,0.6l0.8,0.1h1.1l1,0l1.1,0.1l1.5,0.4l0.9,0.4
			l0.7,0.1l0.9,0.3l0.8,0.2l0.6,0.3l3.5,3.3l0.7,0.2l1,0h1.1c0,0,0.3-0.1,0.4,0.1c0.1,0.3,0.3,0.6,0.3,0.6l-0.1,0.6l-0.2,0.5
			l-0.6,0.6l-0.2,0.5l0.6,0.1l0.6,0.2l0.4-0.6l0.8-0.7l0.7-0.6l1.3-0.7c0,0,0.3-0.3,0.4-0.5c0-0.2,0.4-1.4,0.4-1.4l0.3-1.1l0.1-1.2
			v-1.1l0-1.3C105,135,105,134,105,133.8z"/>
		<path fill="#1A5793" d="M98.7,144.6l-0.1-0.9l0.4-1l0.5-0.8v-0.4l-1.3,0.1l-1.1-0.2l-0.8-0.2l-1-1l-0.6-0.7l-0.8-0.7
			c0,0-0.8-0.5-1-0.6c-0.2-0.1-1.1-0.4-1.1-0.4s-1-0.4-1.3-0.4c-0.3,0-1.2,0-1.5-0.2c-0.3-0.1-1.5-0.3-1.7-0.4
			c-0.1,0-0.9-0.4-1.8-0.3c-0.9,0-2.1,0-2.5,0c-0.3,0-1.1,0-1.1,0l-0.7,0.5l-0.8,0.6l-1.1,0.5l-0.9,0.5l-0.8,0.5l-0.8,0.4l-8.8,8.9
			l0.3,0.1l0.8-0.1l0.7-0.4l0.8-0.3l0.7,0.1l0.7,0.7l1.1,1l0.9,1v0.6l0.4,0.4l0.5-0.1l0.6-0.3l0.4-0.2l0.5,0.4l0.3,0.3l0.4,0.6
			l0.6,0.5l0.7-0.1l0.6,0.6l0.7,0.3l0.5,0.4l0.6,0.7l0.5,0.6l0.7,0l0.8,0.6l0.1,0.5l0.5,0.5l0.5,0.7c0,0,0.2,0,0.3,0.1
			c0.1,0.1,0.7,0.5,0.7,0.5l0.4,0.4l0,1.1l-0.4,0.5c0,0-0.6,0.3-0.6,0.5c0,0.1,0,2,0,2l0.5-0.4l0.7-0.5l1-0.5l0.4-0.8l0.8-0.9
			l0.3-1.3l0.4-1.2l0.4-0.7v-1.3l0.4-0.7l0.6-0.5l0-1.1l1.1-0.2l0.5-0.4l0.1-1.2l0.7-0.5l0.5-2.1l0.4-0.2l0.7,0.2l0,0.3l0.5,0.2
			l0.4-0.4l0.5-0.1H97l0,1.2l-0.5,0.5l-0.6,0.8l-1,0.9l-0.5,0.9l-0.4,0.7l-1,0.6l-1.1,0.7c0,0-0.6,0.3-0.8,0.4
			c-0.1,0.1-0.5,0.3-0.5,0.3l0,0.6l0.4-0.1l0.5,0l0.8-0.4l1-0.7l0.9-0.9l0.9-0.9l1-1.2l1.2-1.6l0.7-1.4l0.8-1.7l0.3-0.9l0.5-1.1
			l-0.4-0.3L98.7,144.6z"/>
		<path fill="#1A5793" d="M109.3,50.6l0.1-1.5l0.1-1.6l-0.4-1.5l-0.4-0.7l-1.1-0.4l-0.9-0.4l-1.1-0.1l0.3,0.4l0.7,0.8v1.1l-0.3,1.3
			l-0.4,1.1l-0.7,0.8l-1,0.9l-1.1,0.6l-0.3,1.3l-0.1,1.1l0.3,1v0.9l-0.3,1.3l-0.4,1l-0.6,0.9l-0.6,0.6l-1.2,1.3l-0.4,0.9l-0.1,1.6
			l-0.3,1.3l-0.7,1.3l-0.7,2.2l-0.3,2.7v2.5l0.4,1.3c0,0,0.8-0.6,1.1-0.6c0.3,0,0.1,0.6,0.1,0.6l0.7,1.2l0.5,0.6l0.7,0.3l0.9,0.3
			l0.4-0.7l0.8-0.6l1.2-0.1h0.6l0.6,0.6l0.7,0.4l0.7,0.3l0.7,0.3l1.1,0.6l0.1-0.4l0.8-0.1l1.5-0.2l1.3-0.3l1.8-0.7l0.6-0.1l0.1-0.9
			l-0.3-0.5v-0.9l0.4-0.5c0,0-0.1-1.3,0-1.6c0.1-0.3,0-0.4,0-0.4l-0.9-0.6v-0.7l0.1-1.1l0.5-0.9l0.4-0.7l0.7-0.7l0.5-0.4l-0.3-0.4
			l-0.8-0.1l-0.7-0.4l-0.4-0.4l-0.5-0.8l-0.2-0.7l-0.1-0.8l-0.4-0.7l-0.7-0.9l-0.4-0.6l0.1-0.8l0.1-0.8l0.5-0.7l0.7-0.4l0.4-0.7
			l-0.3-0.8H112l-1.1-0.5l-0.7-0.8l-0.5-0.7l-0.9-0.6l-0.1-0.8l0.3-0.7L109.3,50.6z"/>
		<path fill="#1A5793" d="M125.3,65.5l-1,0.9l-0.4,0.5h-1.2l-0.7,0.3l-0.9,0.5l-0.6,0.1l-0.9-0.4l-0.7-0.2l-0.5-0.6l-0.4-0.7
			l-0.7-0.1l-0.7,0.7l-0.5,0.5l-0.8,0.4l-0.5,1.1l-0.1,1.2l0.8,0.5l0.4,1.2l-0.2,1l-0.4,0.7l0.2,1.5l0.3,0.9v1.6l-0.1,1.3l-0.1,0.7
			l0.1,1.5l0.5,0.8c0,0,0.3,0.9,0.5,1.1c0.2,0.2,0.1,1.3,0.1,1.3l-0.1,1l0.7-0.6l1-0.5l1.1-0.7l1.3-0.7l1.1-0.8l1.1-0.3l0.7-0.1
			l1.3,0.2l0.4,0.6l0.1,0.3V65L125.3,65.5z"/>
		<path fill="#1A5793" d="M125.3,50.6l-1,0.1l-0.7,0.5l-0.7,0.8l-1,0.9l-1,0.4l-0.8,0.3l-0.7,0.2l-0.6,0.4l-0.4,0.4l-0.2,0.8
			l-0.3,1.2l-0.5,1.2l-0.4,0.8l-0.4,1l0.1,1.2l0.2,0.8v1l0.1,1l0.1,1.1h1l0.4,0.3l0.3,0.5l0.5,0.7c0,0,0,0,0.4,0.1
			c0.4,0.1,0.7,0.3,0.7,0.3l0.8-0.3l0.8-0.4l0.8-0.4l0.8-0.2l0.6-0.6l0.4-0.6l0.2-0.9v-0.7l0.1-0.9l0.5-0.5V50.6L125.3,50.6z"/>
		<path fill="#1A5793" d="M100.7,23.5l-0.7-0.2L99.2,23l-0.7,0.1l-0.3,0.8l-0.1,0.7L98,25.4c0,0,0.1,0.8,0,1
			c-0.1,0.2-0.2,1.2-0.2,1.2l-0.1,1l0.3,0.1l0.4-0.3l0.6-0.1l0.4,0.1l0.4,0.2l0.5-0.3l0.4-0.4l0.5-0.3l0.5,0.2l0.4-0.2l0.7-0.6
			l0.8-0.1l0.7-1l0.6-0.9l0.1-0.7l0.2-0.7l-1.2-0.1l-0.8-0.1h-1l-0.5,0.1H100.7z"/>
		<polygon fill="#1A5793" points="101.8,22 101.5,21.3 100.9,21.4 100.5,22.2 101,22.5 		"/>
		<path fill="#1A5793" d="M98.5,20.9l-0.4,0.7c0,0,0.9,0.1,1.1,0.1c0.2,0,0.7,0.1,0.7,0.1l0.1-0.5l0.4-1l-1.2-0.3L98.5,20.9z"/>
		<polygon fill="#1A5793" points="96.4,22.8 96.7,22.1 96.7,21.6 96,21.6 95.2,22.1 95,23.1 95.1,23.9 95.9,23.1 		"/>
		<polygon fill="#1A5793" points="92.9,25.1 92.2,26.2 91.8,27.4 92.4,27.1 93,26.1 93.7,25.4 93.4,24.8 		"/>
		<polygon fill="#1A5793" points="96.7,25 96.4,25.1 95.8,25.3 95.5,25.7 96,25.8 96.4,26 97.3,25.6 		"/>
		<polygon fill="#1A5793" points="97.3,22.8 96.8,23 96.7,23.6 97.3,23.6 		"/>
		<polygon fill="#1A5793" points="96.2,27.2 96.3,27.9 97,27.9 97,27.3 96.7,26.8 96.3,26.8 		"/>
		<rect x="122" y="7.5" fill="#1A5793" width="4" height="132.5"/>
	</g>
</g>
</svg>
