<?xml version="1.0" encoding="utf-8"?>
<!-- Generator: Adobe Illustrator 18.0.0, SVG Export Plug-In . SVG Version: 6.00 Build 0)  -->
<!DOCTYPE svg PUBLIC "-//W3C//DTD SVG 1.1//EN" "http://www.w3.org/Graphics/SVG/1.1/DTD/svg11.dtd">
<svg version="1.1" id="Camada_1" xmlns="http://www.w3.org/2000/svg" xmlns:xlink="http://www.w3.org/1999/xlink" x="0px" y="0px"
	 viewBox="0 0 29 29" enable-background="new 0 0 29 29" xml:space="preserve">
<path fill="#195C96" d="M4.1,4.4C1.6,7,0,10.6,0,14.5C0,22.5,6.5,29,14.5,29c8,0,14.5-6.5,14.5-14.5C29,6.5,22.5,0,14.5,0
	c-3.3,0-6.4,1.1-8.9,3L4.1,4.4z M14.5,2c6.9,0,12.5,5.6,12.5,12.5c0,6.9-5.6,12.5-12.5,12.5C7.6,26.9,2,21.3,2,14.5
	C2,7.6,7.6,2,14.5,2z"/>
<path fill="#195C96" d="M16,20.7l2.1-2.1l-4.1-4.1l4.1-4.1L16,8.3l-6.2,6.2L16,20.7z"/>
</svg>
