<?xml version="1.0" encoding="utf-8"?>
<!-- Generator: Adobe Illustrator 18.0.0, SVG Export Plug-In . SVG Version: 6.00 Build 0)  -->
<!DOCTYPE svg PUBLIC "-//W3C//DTD SVG 1.1//EN" "http://www.w3.org/Graphics/SVG/1.1/DTD/svg11.dtd">
<svg version="1.1" id="Camada_1" xmlns="http://www.w3.org/2000/svg" xmlns:xlink="http://www.w3.org/1999/xlink" x="0px" y="0px"
	 viewBox="0 0 125.5 125.8" enable-background="new 0 0 125.5 125.8" xml:space="preserve">
<circle fill="#1A5793" cx="62.7" cy="62.7" r="62.7"/>
<path fill="#FFFFFF" d="M76,32v19.7h19.7V32H76z M92.2,48.2H79.5V35.5h12.7V48.2z"/>
<path fill="#FFFFFF" d="M69.3,59.2V43H33.2v51.5h51.5V59.2H69.3z M50.2,91.1H36.6V78.3h13.6V91.1z M50.2,74.9H36.6V62.7h13.6V74.9z
	 M50.2,59.2H36.6V46.5h13.6V59.2z M65.9,91.1H53.7V78.3h12.2V91.1z M65.9,74.9H53.7V62.7h12.2V74.9z M65.9,59.2H53.7V46.5h12.2V59.2
	z M81.2,91.1H69.3V78.3h11.9V91.1z M81.2,74.9H69.3V62.7h11.9V74.9z"/>
</svg>
