<?xml version="1.0" encoding="utf-8"?>
<!-- Generator: Adobe Illustrator 18.0.0, SVG Export Plug-In . SVG Version: 6.00 Build 0)  -->
<!DOCTYPE svg PUBLIC "-//W3C//DTD SVG 1.1//EN" "http://www.w3.org/Graphics/SVG/1.1/DTD/svg11.dtd">
<svg version="1.1" id="Camada_1" xmlns="http://www.w3.org/2000/svg" xmlns:xlink="http://www.w3.org/1999/xlink" x="0px" y="0px"
	 viewBox="0 0 29 29" enable-background="new 0 0 29 29" xml:space="preserve">
<path fill="#1A5793" d="M24.9,24.6C27.4,22,29,18.4,29,14.5C29,6.5,22.5,0,14.5,0C6.5,0,0,6.5,0,14.5C0,22.5,6.5,29,14.5,29
	c3.3,0,6.4-1.1,8.9-3L24.9,24.6z M14.5,26.9C7.6,26.9,2,21.3,2,14.5C2,7.6,7.6,2,14.5,2c6.9,0,12.5,5.6,12.5,12.5
	C26.9,21.3,21.4,26.9,14.5,26.9z"/>
<path fill="#1A5793" d="M13,8.3l-2.1,2.1l4.1,4.1l-4.1,4.1l2.1,2.1l6.2-6.2L13,8.3z"/>
</svg>
