<?xml version="1.0" encoding="utf-8"?>
<!-- Generator: Adobe Illustrator 18.0.0, SVG Export Plug-In . SVG Version: 6.00 Build 0)  -->
<!DOCTYPE svg PUBLIC "-//W3C//DTD SVG 1.1//EN" "http://www.w3.org/Graphics/SVG/1.1/DTD/svg11.dtd">
<svg version="1.1" id="Camada_1" xmlns="http://www.w3.org/2000/svg" xmlns:xlink="http://www.w3.org/1999/xlink" x="0px" y="0px"
	 viewBox="0 0 20.6 36.3" enable-background="new 0 0 20.6 36.3" xml:space="preserve">
<path fill-rule="evenodd" clip-rule="evenodd" fill="#1A5793" d="M20.3,8.2c-1-5-5.8-8.8-11.3-8.1C5,0.6,2.3,2.9,0.7,6.5
	C0,8.2-0.1,10,0.1,11.8c0.1,1.4,0.5,2.8,1.1,4c0.6,1.2,1.2,2.5,1.7,3.8c1.8,4,3.5,8,5.3,12c0.7,1.6,1.4,3.1,2.1,4.7
	c0.1-0.1,0.1-0.2,0.1-0.3c1.2-2.8,2.5-5.6,3.7-8.4c1.1-2.5,2.2-5.1,3.3-7.6c0.5-1.2,1-2.4,1.6-3.6C20.5,13.8,20.9,11.1,20.3,8.2z
	 M17.3,15.5c-0.5,0.9-0.9,1.8-1.2,2.7c-0.1,0.4-0.3,0.7-0.5,1.1l-5.3,12.1l-1.5-3.5c-1.3-3-2.7-6-4-9C4.2,17.5,3.6,16.3,3,15
	c-0.5-1.1-0.8-2.2-0.9-3.4c-0.2-1.7,0-3.1,0.5-4.3c1.3-3.1,3.5-4.8,6.7-5.2C9.6,2,10,2,10.4,2c3.8,0,7.2,2.8,8,6.6
	C18.8,11,18.5,13.3,17.3,15.5z"/>
<path fill-rule="evenodd" clip-rule="evenodd" fill="#1A5793" d="M10.3,6.7c-2.1,0-3.8,1.7-3.8,3.8c0,2.1,1.7,3.8,3.8,3.8
	c2.1,0,3.8-1.7,3.8-3.8C14.1,8.4,12.4,6.7,10.3,6.7z M10.3,12.4c-1,0-1.8-0.8-1.8-1.8c0-1,0.8-1.8,1.8-1.8c1,0,1.8,0.8,1.8,1.8
	C12.1,11.5,11.3,12.4,10.3,12.4z"/>
</svg>
